HIERARCHY
ROOT Hips
{
	OFFSET 0.00000 0.00000 0.00000
	CHANNELS 6 Xposition Yposition Zposition Zrotation Yrotation Xrotation 
	JOINT RightUpLegDummy
	{
		OFFSET 0 0 0
		CHANNELS 3 Zrotation Yrotation Xrotation
		JOINT RightUpLeg
		{
			OFFSET -3.52197 -3.41223 0.04002
			CHANNELS 3 Zrotation Yrotation Xrotation
			JOINT RightLeg
			{
				OFFSET 0.00006 -17.42390 1.60435
				CHANNELS 3 Zrotation Yrotation Xrotation
				JOINT RightFoot
				{
					OFFSET 0.06154 -16.50078 -1.63900
					CHANNELS 3 Zrotation Yrotation Xrotation
					JOINT RightToes
					{
						OFFSET 0.00298 -1.73825 3.34613
						CHANNELS 3 Zrotation Yrotation Xrotation
						End Site
						{
							OFFSET 0.00480 -0.05416 3.85043
						}
					}
				}
			}
		}
	}
	JOINT SpineDummy
	{
		OFFSET 0 0 0
		CHANNELS 3 Zrotation Yrotation Xrotation
		JOINT Spine
		{
			OFFSET 0.00000 4.68130 0.00000
			CHANNELS 3 Zrotation Yrotation Xrotation
			JOINT Spine1
			{
				OFFSET -0.00000 10.10138 0.05002
				CHANNELS 3 Zrotation Yrotation Xrotation
				JOINT HEadDummy
				{
					OFFSET 0 0 0
					CHANNELS 3 Zrotation Yrotation Xrotation
					JOINT Head
					{
						OFFSET -0.00000 3.43865 0.00438
						CHANNELS 3 Zrotation Yrotation Xrotation
						End Site
						{
							OFFSET -0.11417 5.02924 0.98962
						}
					}
				}
				JOINT LeftShoulder1Dummy
				{
					OFFSET 0 0 0
					CHANNELS 3 Zrotation Yrotation Xrotation
					JOINT LeftShoulder1
					{
						OFFSET 3.53937 -0.14262 -0.08662
						CHANNELS 3 Zrotation Yrotation Xrotation
						JOINT LeftArm
						{
							OFFSET 4.04833 -0.00133 0.12681
							CHANNELS 3 Zrotation Yrotation Xrotation
							JOINT LeftForeArm
							{
								OFFSET 10.33880 -0.01036 -0.55515
								CHANNELS 3 Zrotation Yrotation Xrotation
								JOINT LeftHand
								{
									OFFSET 8.69677 0.07543 0.40060
									CHANNELS 3 Zrotation Yrotation Xrotation
									End Site
									{
										OFFSET 5.28377 -0.21905 0.59205
									}
								}
							}
						}
					}
				}
				JOINT RightShoulderDummy
				{
					OFFSET 0 0 0
					CHANNELS 3 Zrotation Yrotation Xrotation
					JOINT RightShoulder
					{
						OFFSET -3.53937 -0.14262 -0.08660
						CHANNELS 3 Zrotation Yrotation Xrotation
						JOINT RightArm
						{
							OFFSET -4.04833 -0.00133 0.12683
							CHANNELS 3 Zrotation Yrotation Xrotation
							JOINT RightForeArm
							{
								OFFSET -10.37987 -0.01039 -0.55511
								CHANNELS 3 Zrotation Yrotation Xrotation
								JOINT RightHand
								{
									OFFSET -8.67398 0.07538 0.40058
									CHANNELS 3 Zrotation Yrotation Xrotation
									End Site
									{
										OFFSET -5.24810 -0.21916 0.59204
									}
								}
							}
						}
					}
				}
			}
		}
	}
	JOINT LeftUpLegDummy
	{
		OFFSET 0 0 0
		CHANNELS 3 Zrotation Yrotation Xrotation
		JOINT LeftUpLeg
		{
			OFFSET 3.52197 -3.41223 0.04002
			CHANNELS 3 Zrotation Yrotation Xrotation
			JOINT LeftLeg
			{
				OFFSET -0.00012 -17.42399 1.60337
				CHANNELS 3 Zrotation Yrotation Xrotation
				JOINT LeftFoot
				{
					OFFSET -0.09972 -16.50070 -1.63802
					CHANNELS 3 Zrotation Yrotation Xrotation
					JOINT LeftToes
					{
						OFFSET -0.01575 -1.73823 3.34611
						CHANNELS 3 Zrotation Yrotation Xrotation
						End Site
						{
							OFFSET 0.03150 -0.01868 3.85031
						}
					}
				}
			}
		}
	}
}
MOTION
Frames: 6
Frame Time: 0.033333
-81.8004 39.2886 -2.5402 -5.8528 82.0009 -3.6864 0.0000 0.0000 0.0000 -1.1126 -7.4795 12.8192 1.8105 7.5455 13.0563 5.1898 0.1965 -17.0661 0.0000 0.0000 -0.0000 0.0000 0.0000 0.0000 10.2887 3.3043 -7.3043 -5.6707 5.1239 20.1607 0.0000 0.0000 0.0000 -0.7344 0.2404 -7.3417 0.0000 0.0000 0.0000 -18.4468 -4.3705 1.9691 -59.8387 4.4613 -20.3807 -13.1177 4.8645 55.2905 12.7041 -0.3662 -0.6252 0.0000 0.0000 0.0000 19.0423 0.5356 1.0336 52.3477 36.9183 20.3651 0.8458 30.2564 -4.2587 -9.0528 1.9139 -0.5529 0.0000 0.0000 0.0000 0.7117 -1.5351 -24.3759 -2.6703 13.0306 -6.1508 -6.5753 0.7769 2.2235 0.0000 0.0000 0.0000
-80.1785 39.2168 -2.4448 -0.3467 82.4965 1.9045 0.0000 0.0000 0.0000 -2.1937 -7.3865 15.1011 1.3636 7.6275 13.1945 7.4588 0.1753 -14.9754 0.0000 0.0000 -0.0000 0.0000 0.0000 0.0000 8.7590 3.2280 -8.3547 -6.0546 5.3179 20.7948 0.0000 0.0000 0.0000 -0.0172 -0.2814 -6.9927 0.0000 0.0000 0.0000 -18.5444 -4.1513 1.9215 -59.3572 5.9158 -20.3290 -13.5399 4.8861 54.1359 11.9673 -0.0157 -0.5539 0.0000 0.0000 0.0000 19.7097 0.6095 1.0779 51.9674 35.8845 19.6521 0.8221 31.3173 -3.6903 -8.7448 2.2055 -0.5533 0.0000 0.0000 0.0000 -0.5441 -1.9278 -23.2711 -3.3891 15.1001 -6.6247 -4.1693 0.5098 4.1813 0.0000 0.0000 0.0000
-78.0202 39.1681 -2.2780 13.2507 83.4625 15.7926 0.0000 0.0000 0.0000 -3.6161 -6.1635 17.0894 0.9044 5.9844 14.5321 12.2393 -0.1048 -10.8184 0.0000 0.0000 -0.0000 0.0000 0.0000 0.0000 5.1640 2.9772 -10.4147 -5.5070 5.0922 22.3408 0.0000 0.0000 0.0000 0.6711 -0.0382 -6.6950 0.0000 0.0000 0.0000 -18.5323 -3.8892 1.8549 -58.9320 6.4058 -20.8497 -13.3646 4.8838 54.4605 11.7237 -0.3698 -0.5762 0.0000 0.0000 0.0000 19.6060 0.6876 1.0941 53.1837 33.9024 18.7000 0.7930 31.5680 -3.1256 -8.6690 2.2956 -0.5543 0.0000 0.0000 0.0000 -2.7972 -3.5100 -22.1722 -2.9871 16.2014 -4.6076 2.2618 -0.5208 10.7645 0.0000 0.0000 0.0000
-75.9743 39.1170 -2.0898 35.0271 83.9817 37.7269 0.0000 0.0000 0.0000 -4.8278 -3.7152 16.4706 0.4946 1.7675 19.9992 16.9730 -1.1623 -3.7387 0.0000 0.0000 -0.0000 0.0000 0.0000 0.0000 0.1298 2.5390 -11.3071 -3.6790 4.2317 22.9454 0.0000 0.0000 0.0000 0.7875 0.3217 -6.6117 0.0000 0.0000 0.0000 -19.4078 -4.1901 1.9932 -57.9455 5.6548 -21.7063 -12.7302 4.8739 55.3207 12.0549 -1.2185 -0.6746 0.0000 0.0000 0.0000 18.6249 1.1180 1.1638 55.4608 30.8879 17.4928 0.7601 30.5051 -2.6534 -9.4793 2.3643 -0.6136 0.0000 0.0000 0.0000 -5.3346 -5.2790 -22.0436 -1.7691 16.0067 0.0189 7.4061 -1.7856 14.7697 0.0000 0.0000 0.0000
-74.2049 39.0781 -1.9203 60.7150 83.3485 63.2318 0.0000 0.0000 0.0000 -6.5995 -3.1517 12.1504 -1.2530 -1.3387 31.1002 18.8942 -3.3499 8.9377 0.0000 0.0000 -0.0000 0.0000 0.0000 0.0000 -4.6758 1.7914 -10.2105 -2.9659 3.3200 22.6277 0.0000 0.0000 0.0000 0.8580 0.0983 -7.0646 0.0000 0.0000 0.0000 -19.9072 -4.6088 2.1385 -57.1572 3.1565 -22.2519 -12.0324 4.9071 54.5859 12.2114 -1.8213 -0.7423 0.0000 0.0000 0.0000 18.0270 1.8273 1.3137 57.7385 28.0505 17.1582 0.6930 27.9093 -3.2619 -10.4280 2.4939 -0.6873 0.0000 0.0000 0.0000 -8.1112 -6.2562 -21.9745 -0.9436 15.1774 5.6578 8.2805 -1.8120 12.2104 0.0000 0.0000 0.0000
-72.6690 38.9911 -1.8042 77.5318 81.7329 79.7327 0.0000 0.0000 0.0000 -8.2921 -2.1521 5.3531 -4.2910 -3.4181 44.1992 17.8970 -5.4483 22.8894 0.0000 0.0000 -0.0000 0.0000 0.0000 0.0000 -7.9939 1.0720 -8.0408 -4.2336 2.6912 22.2633 0.0000 0.0000 0.0000 0.8921 -0.2009 -7.3807 0.0000 0.0000 0.0000 -19.4226 -4.4765 2.0682 -56.9833 -1.2426 -22.3061 -11.4259 4.9904 52.2535 11.9932 -1.9694 -0.7430 0.0000 0.0000 0.0000 18.2232 2.1451 1.4015 59.5187 26.4939 18.5049 1.3738 23.7641 -3.9161 -10.2930 2.4313 -0.6736 0.0000 0.0000 0.0000 -10.8218 -6.3057 -21.5979 -0.5037 13.6820 11.2166 7.4261 -1.2117 6.5792 0.0000 0.0000 0.0000
